#!OML:ASF H:\Terrain\Patient Classification 1\Walking\liu\liu.ASF
:FULLY-SPECIFIED
:DEGREES
275
root 9.964440 16.879700 1.717000 5.905770 -4.005520 1.827630
lowerback -47.763500 -15.271799 -28.523300
upperback -6.048710 -19.375999 21.618000
thorax 22.248600 -10.014000 37.019699
lowerneck -220.067993 -37.004097 -113.166000
upperneck 215.919983 -43.555103 114.684998
head 111.526001 -15.150599 54.376202
rclavicle -0.000000 -0.000000
rhumerus -458.744995 86.697502 -832.286987
rradius 427.436981
rwrist -239.498001
rhand -301.415009 -218.195007
rfingers 71.250198
rthumb -34.540901 -517.713013
lclavicle -0.000000 -0.000000
lhumerus -215.519012 -135.453995 871.054016
lradius 237.557999
lwrist -0.732244
lhand -127.181999 -246.542999
lfingers 71.250198
lthumb 133.649002 48.970497
rfemur -259.708984 -16.913601 180.003998
rtibia 641.835999
rfoot -184.069992 -117.905998
rtoes -193.497009
lfemur -176.397995 65.336998 -283.740997
ltibia 296.804016
lfoot -172.243988 68.423203
ltoes -46.717602
276
root 9.978130 16.869900 1.850370 5.758230 -3.682150 2.013130
lowerback -48.372101 -16.957399 -30.501499
upperback -5.453230 -21.511700 21.747799
thorax 23.466900 -11.131300 38.092999
lowerneck -219.598999 -36.881599 -112.641998
upperneck 218.334991 -43.286499 112.755005
head 112.233002 -15.244301 53.681698
rclavicle -0.000000 0.000000
rhumerus -457.934998 83.774796 -830.076965
rradius 425.914001
rwrist -234.345001
rhand -296.958984 -219.937988
rfingers 71.250198
rthumb -30.238098 -519.520996
lclavicle -0.000000 0.000000
lhumerus -208.673004 -139.263000 870.554932
lradius 239.512009
lwrist 0.787159
lhand -130.393005 -244.897995
lfingers 71.250198
lthumb 130.552994 50.816101
rfemur -268.697998 -17.440500 178.565002
rtibia 633.989014
rfoot -185.841003 -118.291000
rtoes -180.659012
lfemur -168.985001 62.528198 -285.431000
ltibia 294.794983
lfoot -175.039001 66.399200
ltoes -30.111000
277
root 9.993740 16.858999 1.988560 5.632140 -3.325860 2.097630
lowerback -50.586399 -18.301701 -30.471600
upperback -3.442330 -23.251600 21.492802
thorax 26.929501 -12.092600 37.584999
lowerneck -221.093994 -36.685501 -111.574005
upperneck 219.487000 -42.903801 111.279999
head 112.832001 -15.124399 53.048100
rclavicle 0.000000 -0.000000
rhumerus -456.623993 83.857201 -830.708008
rradius 425.509003
rwrist -237.723999
rhand -294.850006 -227.688995
rfingers 71.250198
rthumb -28.200901 -527.299988
lclavicle 0.000000 -0.000000
lhumerus -198.434998 -141.117996 868.702026
lradius 240.578995
lwrist 1.067510
lhand -127.714005 -242.511993
lfingers 71.250198
lthumb 133.136002 53.035599
rfemur -277.078979 -18.432100 177.998993
rtibia 624.977966
rfoot -187.770004 -118.669006
rtoes -182.057007
lfemur -161.414001 60.291000 -286.385010
ltibia 293.451996
lfoot -179.866013 63.577099
ltoes -10.882100
278
root 9.999620 16.847000 2.108090 5.660150 -2.894280 1.934920
lowerback -50.208302 -20.042301 -29.020599
upperback -3.862510 -25.687901 22.374800
thorax 26.477600 -13.282800 37.506001
lowerneck -219.074997 -36.547100 -113.057007
upperneck 218.977997 -42.724899 112.575996
head 112.299995 -15.065300 53.798100
rclavicle -0.000000 -0.000000
rhumerus -459.599976 86.448807 -831.734009
rradius 427.606995
rwrist -241.884995
rhand -291.181000 -231.307999
rfingers 71.250198
rthumb -24.657600 -530.963013
lclavicle -0.000000 -0.000000
lhumerus -191.280991 -141.029999 867.382935
lradius 241.658005
lwrist -1.512630
lhand -132.770996 -244.000000
lfingers 71.250198
lthumb 128.260010 51.859898
rfemur -287.447998 -17.111700 180.919006
rtibia 614.715027
rfoot -199.377991 -118.674004
rtoes -184.828003
lfemur -155.738998 59.231499 -284.588989
ltibia 291.766998
lfoot -181.548004 61.657902
ltoes -4.726330
279
root 10.007700 16.842300 2.231030 5.587340 -2.417500 1.906860
lowerback -48.931297 -21.949100 -28.444199
upperback -4.537370 -28.295900 22.687799
thorax 25.282700 -14.549700 37.356400
lowerneck -217.282013 -36.809101 -115.235992
upperneck 220.182007 -43.247902 114.802002
head 112.587997 -15.278400 54.988998
rclavicle -0.000000 0.000000
rhumerus -462.136993 84.364502 -830.252991
rradius 426.969971
rwrist -237.928009
rhand -291.096985 -233.593994
rfingers 71.250198
rthumb -24.576199 -533.249023
lclavicle -0.000000 0.000000
lhumerus -186.170013 -142.451996 866.321045
lradius 243.876007
lwrist -2.750610
lhand -140.597000 -243.941986
lfingers 71.250198
lthumb 120.716003 52.376198
rfemur -296.005981 -16.783100 181.891006
rtibia 603.455994
rfoot -208.531006 -119.462006
rtoes -167.786011
lfemur -148.266006 58.097603 -284.135010
ltibia 289.315002
lfoot -182.777008 59.599701
ltoes -0.696347
280
root 10.019100 16.846600 2.360970 5.407040 -1.998800 2.116130
lowerback -49.453102 -23.541401 -29.753799
upperback -2.451800 -30.317499 21.712799
thorax 27.922001 -15.644400 36.856998
lowerneck -217.929001 -36.749401 -114.862000
upperneck 220.063995 -43.247299 114.939003
head 112.663002 -15.210600 54.977196
rclavicle -0.000000 0.000000
rhumerus -457.431000 75.231697 -826.731018
rradius 419.828003
rwrist -227.893997
rhand -289.544006 -217.167999
rfingers 71.250198
rthumb -23.076302 -516.841003
lclavicle -0.000000 0.000000
lhumerus -176.756989 -150.171997 864.242004
lradius 246.380005
lwrist 4.236510
lhand -141.598999 -241.275009
lfingers 71.250198
lthumb 119.749001 55.099701
rfemur -303.328979 -16.996099 179.449997
rtibia 591.708984
rfoot -204.371002 -122.682999
rtoes -160.276001
lfemur -139.447006 55.470600 -286.014008
ltibia 286.014008
lfoot -186.569992 56.876797
ltoes 1.639240
281
root 10.021500 16.850700 2.482520 5.415740 -1.532020 2.462740
lowerback -50.145302 -25.627899 -34.124199
upperback -1.332900 -32.821098 21.112400
thorax 29.902302 -17.002800 38.431202
lowerneck -218.470993 -36.351299 -115.414001
upperneck 219.634003 -42.639397 115.849998
head 112.557999 -14.854300 55.510803
rclavicle 0.000000 0.000000
rhumerus -455.375000 72.225403 -825.576050
rradius 416.860016
rwrist -223.733994
rhand -282.889008 -205.333008
rfingers 71.250198
rthumb -16.648901 -505.065002
lclavicle 0.000000 0.000000
lhumerus -166.436996 -156.362000 862.553040
lradius 246.424011
lwrist 12.147501
lhand -143.839996 -243.066010
lfingers 71.250198
lthumb 117.587997 53.433498
rfemur -313.078003 -16.642899 175.673996
rtibia 579.497986
rfoot -202.832001 -123.934006
rtoes -164.922012
lfemur -132.235001 51.990398 -289.507996
ltibia 281.052002
lfoot -189.289001 56.778202
ltoes -4.770230
282
root 10.023600 16.854799 2.600430 5.687970 -0.926544 2.666220
lowerback -51.852001 -28.243799 -37.337299
upperback -2.253630 -36.085300 21.462299
thorax 30.439201 -18.673599 40.264202
lowerneck -219.481995 -36.066799 -116.160004
upperneck 221.473007 -42.212902 116.597992
head 113.416992 -14.619699 56.089802
rclavicle 0.000000 -0.000000
rhumerus -459.656982 79.672401 -828.576965
rradius 420.938995
rwrist -230.897003
rhand -285.690979 -233.567993
rfingers 71.250198
rthumb -19.355400 -533.277039
lclavicle 0.000000 -0.000000
lhumerus -158.660004 -153.809006 861.592041
lradius 245.687012
lwrist 10.496500
lhand -149.205994 -247.319000
lfingers 71.250198
lthumb 112.412994 49.468899
rfemur -324.351990 -17.260899 173.460007
rtibia 566.476990
rfoot -213.117996 -120.962997
rtoes -160.738998
lfemur -126.710999 47.973801 -291.830994
ltibia 274.437988
lfoot -188.558990 57.849003
ltoes -13.157500
283
root 10.029600 16.862400 2.724110 5.841570 -0.440546 2.505220
lowerback -51.804001 -30.070801 -36.995399
upperback -3.740190 -38.596100 23.105600
thorax 29.216400 -19.884501 41.599598
lowerneck -216.224991 -35.334400 -115.965004
upperneck 220.695007 -41.191299 115.308998
head 112.313995 -14.379000 55.658001
rclavicle 0.000000 0.000000
rhumerus -463.432007 83.297997 -828.676025
rradius 420.867004
rwrist -233.425995
rhand -291.067017 -246.648010
rfingers 71.250198
rthumb -24.547701 -546.304993
lclavicle 0.000000 0.000000
lhumerus -153.492004 -150.979996 862.153015
lradius 246.455994
lwrist 5.574420
lhand -152.921997 -247.854996
lfingers 71.250198
lthumb 108.829002 49.125000
rfemur -332.890015 -15.681900 174.602997
rtibia 552.499023
rfoot -221.898010 -119.162994
rtoes -157.330002
lfemur -119.370003 45.915199 -289.832001
ltibia 266.592987
lfoot -188.332001 56.139999
ltoes -17.506800
284
root 10.035300 16.872499 2.862210 5.625520 -0.207706 2.407490
lowerback -50.410698 -30.813200 -36.793900
upperback -3.119760 -39.664101 23.837601
thorax 29.226898 -20.434799 42.205803
lowerneck -215.151993 -35.325897 -114.194000
upperneck 220.748993 -41.165100 112.555000
head 112.014999 -14.576000 54.283298
rclavicle -0.000000 -0.000000
rhumerus -463.535004 80.084900 -826.807983
rradius 417.221008
rwrist -229.160995
rhand -290.372009 -223.369003
rfingers 71.250198
rthumb -23.876600 -523.032959
lclavicle -0.000000 -0.000000
lhumerus -146.742004 -151.537003 861.854004
lradius 247.035995
lwrist 1.445950
lhand -154.373001 -248.434998
lfingers 71.250198
lthumb 107.430000 48.618397
rfemur -336.841003 -11.692801 174.625000
rtibia 537.656982
rfoot -219.139999 -122.009003
rtoes -177.460007
lfemur -106.976006 47.502098 -288.075012
ltibia 257.677002
lfoot -190.102005 54.464996
ltoes -25.649399
285
root 10.042400 16.879499 3.008420 5.419570 0.031845 2.659110
lowerback -53.405602 -31.651499 -38.781097
upperback 0.534499 -40.534000 22.592600
thorax 34.837002 -21.066599 41.680798
lowerneck -219.064011 -36.216599 -113.274002
upperneck 221.312012 -42.205700 112.000000
head 113.087997 -14.934700 53.795399
rclavicle -0.000000 -0.000000
rhumerus -460.024994 78.411598 -828.132019
rradius 415.250000
rwrist -230.625000
rhand -297.432983 -221.093994
rfingers 71.250198
rthumb -30.695200 -520.670044
lclavicle -0.000000 -0.000000
lhumerus -135.345001 -156.817993 859.359009
lradius 247.947998
lwrist 4.842090
lhand -153.330002 -248.567017
lfingers 71.250198
lthumb 108.434998 48.433998
rfemur -340.600006 -9.478980 170.671997
rtibia 522.244019
rfoot -210.037003 -123.834999
rtoes -207.108994
lfemur -94.593201 47.463997 -290.324982
ltibia 249.445007
lfoot -192.600998 54.530300
ltoes -38.892601
286
root 10.047700 16.876699 3.145460 5.403310 0.288870 2.859490
lowerback -54.548996 -32.303398 -41.035599
upperback 1.316080 -41.214500 22.352200
thorax 36.508900 -21.493000 42.545898
lowerneck -217.003998 -36.618801 -116.772003
upperneck 219.097000 -42.557701 115.456001
head 112.085999 -15.018300 55.571098
rclavicle -0.000000 0.000000
rhumerus -459.017975 76.908897 -827.257019
rradius 410.901001
rwrist -230.377014
rhand -302.730011 -231.653992
rfingers 71.250198
rthumb -35.811100 -531.150024
lclavicle -0.000000 0.000000
lhumerus -129.027008 -166.266998 860.366943
lradius 251.327988
lwrist 17.485100
lhand -154.434998 -246.214005
lfingers 71.250198
lthumb 107.370003 50.841999
rfemur -347.167023 -7.737950 167.382996
rtibia 506.889984
rfoot -214.093002 -122.681999
rtoes -207.499008
lfemur -83.032600 46.443703 -292.108002
ltibia 237.792999
lfoot -192.633987 53.515202
ltoes -46.479401
